#N canvas 253 180 689 574 12;
#X obj 287 115 moses 128;
#X obj 347 137 moses 144;
#X obj 407 210 moses 160;
#X obj 347 160 - 127;
#X obj 94 61 t a a;
#X obj 407 232 - 143;
#X obj 278 290 list;
#X obj 278 314 list split 2;
#X obj 346 183 t b a;
#X obj 101 336 list append;
#X msg 176 313 0 \$1;
#X obj 407 255 t b a;
#X obj 277 358 list append;
#X obj 101 501 outlet note;
#X obj 317 501 outlet velocity;
#X obj 479 499 outlet channel;
#X obj 277 392 unpack f f f;
#X obj 101 393 unpack f f f;
#X obj 440 392 notein;
#X obj 94 37 r \$1-midi-osc;
#X obj 126 123 list split 1;
#X obj 101 270 f;
#X obj 119 214 list split 1;
#X connect 0 1 1 0;
#X connect 1 0 3 0;
#X connect 1 1 2 0;
#X connect 2 0 5 0;
#X connect 3 0 8 0;
#X connect 4 0 0 0;
#X connect 4 1 20 0;
#X connect 5 0 11 0;
#X connect 6 0 7 0;
#X connect 7 0 12 0;
#X connect 8 0 21 0;
#X connect 8 1 10 0;
#X connect 9 0 17 0;
#X connect 10 0 9 1;
#X connect 11 0 6 0;
#X connect 11 1 12 1;
#X connect 12 0 16 0;
#X connect 16 0 13 0;
#X connect 16 1 14 0;
#X connect 16 2 15 0;
#X connect 17 0 13 0;
#X connect 17 1 14 0;
#X connect 17 2 15 0;
#X connect 18 0 13 0;
#X connect 18 1 14 0;
#X connect 18 2 15 0;
#X connect 19 0 4 0;
#X connect 20 1 22 0;
#X connect 20 1 6 1;
#X connect 21 0 9 0;
#X connect 22 0 21 1;
