#N canvas 234 125 718 300 12;
#X obj 51 65 midi_notein \$0;
#X obj 51 231 r \$0-midi-osc;
#X obj 51 255 print midi-osc-raw;
#X obj 52 22 midi-osc-blob \$0 9000;
#X obj 436 37 midi_ctlin \$0;
#X obj 436 105 print ctl_value;
#X obj 480 83 print ctl_number;
#X obj 524 61 print ctl_channel;
#X obj 51 133 print note_pitch;
#X obj 98 110 print note_velocity;
#X obj 146 87 print note_channel;
#X connect 0 0 8 0;
#X connect 0 1 9 0;
#X connect 0 2 10 0;
#X connect 1 0 2 0;
#X connect 4 0 5 0;
#X connect 4 1 6 0;
#X connect 4 2 7 0;
