#N canvas 253 180 674 457 12;
#X obj 124 59 t a a;
#X obj 131 379 outlet note;
#X obj 347 379 outlet velocity;
#X obj 509 377 outlet channel;
#X obj 307 270 unpack f f f;
#X obj 124 35 r \$1-midi-osc;
#X obj 348 137 list split 1;
#X obj 477 270 ctlin;
#X obj 307 236 list prepend;
#X obj 184 162 moses 191;
#X obj 184 185 - 175;
#X obj 124 117 list split 1;
#X obj 124 140 moses 176;
#X obj 388 162 swap;
#X obj 388 186 pack;
#X connect 0 0 11 0;
#X connect 0 1 6 0;
#X connect 4 0 1 0;
#X connect 4 1 2 0;
#X connect 4 2 3 0;
#X connect 5 0 0 0;
#X connect 6 1 13 0;
#X connect 7 0 1 0;
#X connect 7 1 2 0;
#X connect 7 2 3 0;
#X connect 8 0 4 0;
#X connect 9 0 10 0;
#X connect 10 0 8 0;
#X connect 11 0 12 0;
#X connect 12 1 9 0;
#X connect 13 0 14 0;
#X connect 13 1 14 1;
#X connect 14 0 8 1;
