#N canvas 253 180 635 443 12;
#X obj 154 187 - 127;
#X obj 94 61 t a a;
#X obj 101 381 outlet note;
#X obj 317 381 outlet velocity;
#X obj 479 379 outlet channel;
#X obj 277 272 unpack f f f;
#X obj 94 37 r \$1-midi-osc;
#X obj 318 169 list split 1;
#X obj 447 272 ctlin;
#X obj 94 142 moses 160;
#X obj 154 164 moses 176;
#X obj 277 238 list prepend;
#X connect 0 0 11 0;
#X connect 1 0 9 0;
#X connect 1 1 7 0;
#X connect 5 0 2 0;
#X connect 5 1 3 0;
#X connect 5 2 4 0;
#X connect 6 0 1 0;
#X connect 7 1 11 1;
#X connect 8 0 2 0;
#X connect 8 1 3 0;
#X connect 8 2 4 0;
#X connect 9 1 10 0;
#X connect 10 0 0 0;
#X connect 11 0 5 0;
